<svg id="Layer_1" data-name="Layer 1" xmlns="http://www.w3.org/2000/svg" viewBox="0 0 100 56"><defs><style>.cls-1{fill:#00a1e1;}.cls-2{fill:#fff;}</style></defs><title>logo-white-desktop</title><g id="Art"><path class="cls-1" d="M97.2,23.7a1,1,0,0,1,1.1,1.1V75.2a1,1,0,0,1-1.1,1.1H2.8a1,1,0,0,1-1.1-1.1V24.8a1,1,0,0,1,1.1-1.1H97.2m0-1.8H2.8A2.62,2.62,0,0,0,0,24.7V75.1a2.62,2.62,0,0,0,2.8,2.8H97.2a2.62,2.62,0,0,0,2.8-2.8V24.8a2.65,2.65,0,0,0-2.8-2.9h0Z" transform="translate(0 -21.9)"/><path class="cls-2" d="M88.4,56V71.3H80.5V56H75.7V51.3H93.2V56H88.4ZM49.1,49.1c6.3,0,9.4-2.2,9.4-7.6V28.7H51.1V42.2a1.79,1.79,0,0,1-2,2,1.84,1.84,0,0,1-2-2V28.7H39.5V41.4C39.5,46.5,42.4,49.1,49.1,49.1ZM74,71.3V51.2H66.3v7.3H62.1V51.2H54.4V71.3h7.7V63.5h4.2v7.8H74Zm-30,.6a22.44,22.44,0,0,0,8.4-1.6V59.9H43.1v4h2.4v3.4a3.78,3.78,0,0,1-1.2.1c-3,0-4-2.4-4-6.1,0-3.9,1.6-5.5,4.1-5.5a7,7,0,0,1,4.7,1.9l3.5-4a12.52,12.52,0,0,0-8.8-3c-6.7,0-11.3,3.8-11.3,10.6C32.5,68.6,36.8,71.9,44,71.9Zm-21.3-.6h8V51.2h-8V71.3Zm-1.6,0v-5H14.7V51.2H6.8V71.3H21.1ZM70.8,48.8c5.3,0,10.2-3,10.2-10.2s-4.4-9.9-9.8-9.9H60.8V48.8h10M69.2,33.1c1.4,0,3.9.2,3.9,5.5s-2.2,5.8-3.9,5.8H68.4V33.1h0.8M31.3,48.8c3.7,0,6.7-1.8,6.7-6A5,5,0,0,0,34.5,38a4.52,4.52,0,0,0,2.9-4.2c0-3.3-2.4-5.1-6.2-5.1H19V48.8H31.3m-2.6-16a1.71,1.71,0,0,1,1.8,1.9c0,1.6-.8,2.1-1.8,2.1H26.5V32.7h2.2m0.2,7.5a1.8,1.8,0,0,1,1.9,2.1c0,1.8-.9,2.2-1.9,2.2H26.5V40.2h2.4M92.5,69.6a0.34,0.34,0,0,0-.2-0.4,0.6,0.6,0,0,0-.4-0.1H91.2v1.6h0.3V70h0.3l0.3,0.7h0.4L92.1,70A0.33,0.33,0,0,0,92.5,69.6Zm-1,.2V69.4h0.4c0.1,0,.4,0,0.4.2s-0.1.2-.3,0.2H91.5Zm0.3-1.3a1.4,1.4,0,1,0,1.4,1.4A1.37,1.37,0,0,0,91.8,68.5Zm0,2.6A1.2,1.2,0,1,1,93,69.9,1.22,1.22,0,0,1,91.8,71.1Z" transform="translate(0 -21.9)"/></g></svg>